<svg xmlns="http://www.w3.org/2000/svg" width="600.26" height="464.5" viewBox="0 0 600.26 464.5"><g transform="translate(0 0)"><line x1="600" transform="translate(0.26 462)" fill="none" stroke="#0074ff" stroke-width="5"/><g transform="translate(8165.122 10348)"><path d="M-7883,5749" transform="translate(318.137 -15763.922)" fill="none" stroke="#707070" stroke-width="1"/><path d="M-7883,5749" transform="translate(318.137 -15763.922)" fill="none" stroke="#707070" stroke-width="1"/><g transform="translate(-8044.336 -10321.112)"><path d="M551.074,287.509c2.5-31.584-5.2-64.579-15.474-93.978-15.261-43.71-44.959-88.47-94.827-98.811-28.787-5.957-58.085.437-82.763,15.374-23.729,14.362-42.249,32.92-71.423,36.517-29.511,3.634-59.8,2.161-89.469,2.161-76.269,0-138.175,76.731-122.639,156.658s88.37,135.378,150.277,135.378c55.637,0,101.4-31.959,154.236-40.538,26.226-4.259,52.515.774,78.441-5.595,30.135-7.418,58.472-25.1,75.17-50.7C543.98,326.511,549.525,307.291,551.074,287.509Z" transform="translate(-72.074 -92.509)" fill="#fff"/><path d="M551.074,287.509c2.5-31.584-5.2-64.579-15.474-93.978-15.261-43.71-44.959-88.47-94.827-98.811-28.787-5.957-58.085.437-82.763,15.374-23.729,14.362-42.249,32.92-71.423,36.517-29.511,3.634-59.8,2.161-89.469,2.161-76.269,0-138.175,76.731-122.639,156.658s88.37,135.378,150.277,135.378c55.637,0,101.4-31.959,154.236-40.538,26.226-4.259,52.515.774,78.441-5.595,30.135-7.418,58.472-25.1,75.17-50.7C543.98,326.511,549.525,307.291,551.074,287.509Z" transform="translate(-72.074 -92.509)" fill="#fff" opacity="0.7"/></g><g transform="translate(-8034.718 -10204.034)"><circle cx="29.024" cy="29.024" r="29.024" transform="translate(0 53.095) rotate(-66.16)" fill="none" stroke="#263238" stroke-linecap="round" stroke-linejoin="round" stroke-width="1"/><circle cx="24.053" cy="24.053" r="24.053" transform="translate(10.776 18.285) rotate(-8.97)" fill="none" stroke="#263238" stroke-linecap="round" stroke-linejoin="round" stroke-width="1"/><path d="M98.15,216.92h15.336v22.13" transform="translate(-75.203 -178.625)" fill="none" stroke="#263238" stroke-linecap="round" stroke-linejoin="round" stroke-width="1"/></g><path d="M223.82,82.619,219.162,70.98H143.53V393.489h295.9V82.619Z" transform="translate(-8098.627 -10418.98)" fill="#a3a3a3"/><rect width="285.929" height="300.066" transform="translate(-7950.951 -10328.88)" fill="#fff"/><rect width="285.929" height="12.464" transform="translate(-7950.951 -10328.88)" fill="#2cc3ff"/><path d="M329.041,106.72H224.448a7.968,7.968,0,0,0-7.968,7.98v42.836l9.429-9.991H329.041a7.98,7.98,0,0,0,7.98-8.005V114.7A7.98,7.98,0,0,0,329.041,106.72Z" transform="translate(-8080.473 -10410.086)" fill="#a3a3a3"/><circle cx="11.215" cy="11.215" r="11.215" transform="translate(-7853.863 -10297.046)" fill="#fff"/><path d="M238.215,120.289s1.174-1.574,1.436,0-2.011,3.522-2.011,3.522Z" transform="translate(-8075.206 -10406.883)" fill="#fff" stroke="#263238" stroke-linecap="round" stroke-linejoin="round" stroke-width="1"/><path d="M229.36,120.289s-1.174-1.574-1.436,0,2.011,3.522,2.011,3.522Z" transform="translate(-8077.629 -10406.883)" fill="#fff" stroke="#263238" stroke-linecap="round" stroke-linejoin="round" stroke-width="1"/><path d="M235.093,114s-4.433-.35-5.458,2.61a17.983,17.983,0,0,0,0,8.642c.337.912,3.185,5.345,3.984,5.695a3.934,3.934,0,0,0,3.072-.237c.337-.45,3.185-4.658,3.409-6.132a57.785,57.785,0,0,0-.125-6.519,4.059,4.059,0,0,0-2.5-3.534,7.331,7.331,0,0,0-2.385-.525Z" transform="translate(-8077.33 -10408.276)" fill="#fff" stroke="#263238" stroke-linecap="round" stroke-linejoin="round" stroke-width="1"/><path d="M239.981,118.021a4.059,4.059,0,0,0-2.5-3.534,7.331,7.331,0,0,0-2.385-.525s-4.433-.35-5.458,2.61a14.313,14.313,0,0,0-.5,5.2c.212.262.962,1.049.849,0s-.262-4.708.649-5.483,1.049-1.449,2.348-.4,1.186,1.961,2.5,1.249,1.574-2.1,2.748-1.574.787,3.01.787,4.184,0,3.4.787,2.36a3.42,3.42,0,0,0,.35-.712C240.106,120.257,240.031,119.008,239.981,118.021Z" transform="translate(-8077.335 -10408.287)" fill="#263238" stroke="#263238" stroke-linecap="round" stroke-linejoin="round" stroke-width="1"/><line x2="23.229" transform="translate(-7824.828 -10293.837)" fill="none" stroke="#fff" stroke-linecap="round" stroke-linejoin="round" stroke-width="2"/><line x2="71.098" transform="translate(-7824.828 -10285.743)" fill="none" stroke="#fff" stroke-linecap="round" stroke-linejoin="round" stroke-width="1"/><line x2="71.098" transform="translate(-7824.828 -10279.062)" fill="none" stroke="#fff" stroke-linecap="round" stroke-linejoin="round" stroke-width="1"/><line x2="71.098" transform="translate(-7824.828 -10271.669)" fill="none" stroke="#fff" stroke-linecap="round" stroke-linejoin="round" stroke-width="1"/><path d="M329.041,241.51H224.448a7.955,7.955,0,0,0-7.968,7.968v42.836l9.429-9.991H329.041a7.98,7.98,0,0,0,7.98-7.968V249.478a7.968,7.968,0,0,0-7.98-7.968Z" transform="translate(-8080.473 -10376.54)" fill="#a3a3a3"/><circle cx="11.265" cy="11.265" r="11.265" transform="translate(-7856.557 -10118.857) rotate(-43.386)" fill="#fff"/><path d="M238.215,255.069s1.174-1.574,1.436,0-2.011,3.534-2.011,3.534Z" transform="translate(-8075.206 -10373.339)" fill="#fff" stroke="#263238" stroke-linecap="round" stroke-linejoin="round" stroke-width="1"/><path d="M229.36,255.069s-1.174-1.574-1.436,0,2.011,3.534,2.011,3.534Z" transform="translate(-8077.629 -10373.339)" fill="#fff" stroke="#263238" stroke-linecap="round" stroke-linejoin="round" stroke-width="1"/><path d="M235.093,248.742s-4.433-.337-5.458,2.61a18.034,18.034,0,0,0,0,8.655c.337.9,3.185,5.345,3.984,5.682a3.984,3.984,0,0,0,3.072-.225c.337-.462,3.185-4.671,3.409-6.144a57.78,57.78,0,0,0-.125-6.519,4.084,4.084,0,0,0-2.5-3.534,7.666,7.666,0,0,0-2.385-.525Z" transform="translate(-8077.33 -10374.742)" fill="#fff" stroke="#263238" stroke-linecap="round" stroke-linejoin="round" stroke-width="1"/><path d="M239.981,252.811a4.084,4.084,0,0,0-2.5-3.534,7.668,7.668,0,0,0-2.385-.525s-4.433-.337-5.458,2.61a14.313,14.313,0,0,0-.5,5.2c.212.262.962,1.062.849,0s-.262-4.708.649-5.5,1.049-1.436,2.348-.4,1.186,1.973,2.5,1.311,1.574-2.086,2.748-1.561.787,3,.787,4.184,0,3.4.787,2.348a3.132,3.132,0,0,0,.35-.712C240.106,255.084,240.031,253.8,239.981,252.811Z" transform="translate(-8077.335 -10374.74)" fill="#263238" stroke="#263238" stroke-linecap="round" stroke-linejoin="round" stroke-width="1"/><line x2="23.229" transform="translate(-7824.828 -10125.514)" fill="none" stroke="#fff" stroke-linecap="round" stroke-linejoin="round" stroke-width="2"/><line x2="71.098" transform="translate(-7824.828 -10117.421)" fill="none" stroke="#fff" stroke-linecap="round" stroke-linejoin="round" stroke-width="1"/><line x2="71.098" transform="translate(-7824.828 -10110.728)" fill="none" stroke="#fff" stroke-linecap="round" stroke-linejoin="round" stroke-width="1"/><line x2="71.098" transform="translate(-7824.828 -10103.334)" fill="none" stroke="#fff" stroke-linecap="round" stroke-linejoin="round" stroke-width="1"/><path d="M373.423,197.15H268.868a7.968,7.968,0,0,0-7.968,7.968V230a7.968,7.968,0,0,0,7.968,7.968H372.012l9.429,9.991V205.118a7.968,7.968,0,0,0-8.018-7.968Z" transform="translate(-8069.417 -10387.58)" fill="#a3a3a3"/><circle cx="11.215" cy="11.215" r="11.215" transform="translate(-7798.376 -10184.111)" fill="#fff"/><path d="M282.632,210.708s1.249-1.561,1.436,0-2,3.534-2,3.534Z" transform="translate(-8064.149 -10384.378)" fill="#fff" stroke="#263238" stroke-linecap="round" stroke-linejoin="round" stroke-width="1"/><path d="M273.79,210.708s-1.174-1.561-1.436,0,2.061,3.534,2.061,3.534Z" transform="translate(-8066.572 -10384.378)" fill="#fff" stroke="#263238" stroke-linecap="round" stroke-linejoin="round" stroke-width="1"/><path d="M279.524,204.382s-4.434-.337-5.458,2.61a17.873,17.873,0,0,0,0,8.655c.337.9,3.185,5.345,3.971,5.682a3.984,3.984,0,0,0,3.072-.225c.35-.462,3.185-4.671,3.409-6.145a52.447,52.447,0,0,0-.125-6.519,4.059,4.059,0,0,0-2.5-3.534,7.493,7.493,0,0,0-2.373-.525Z" transform="translate(-8066.273 -10385.783)" fill="#fff" stroke="#263238" stroke-linecap="round" stroke-linejoin="round" stroke-width="1"/><path d="M284.4,208.441a4.059,4.059,0,0,0-2.5-3.534,7.493,7.493,0,0,0-2.373-.525s-4.433-.337-5.458,2.61a14.6,14.6,0,0,0-.512,5.2c.225.262.962,1.062.849.062-.125-1.249-.262-4.708.662-5.5s1.037-1.436,2.348-.387,1.174,1.961,2.5,1.249,1.574-2.086,2.748-1.561.787,3,.787,4.184,0,3.4.774,2.348a2.685,2.685,0,0,0,.35-.712C284.525,210.739,284.462,209.44,284.4,208.441Z" transform="translate(-8066.279 -10385.783)" fill="#263238" stroke="#263238" stroke-linecap="round" stroke-linejoin="round" stroke-width="1"/><path d="M274.76,206.823a6.244,6.244,0,0,0,4.421,2.685,6.394,6.394,0,0,0,4.908-1,1.491,1.491,0,0,0,1.424-1.686c0-1.686.475-.974-1.948-.974S275.409,201.328,274.76,206.823Z" transform="translate(-8065.968 -10385.85)" fill="#263238" stroke="#263238" stroke-linecap="round" stroke-linejoin="round" stroke-width="1"/><path d="M278.739,211.15H274.33l.475,1.461a.687.687,0,0,0,.649.475h2.273a.687.687,0,0,0,.662-.525Z" transform="translate(-8066.075 -10384.095)" fill="#fff" stroke="#263238" stroke-linecap="round" stroke-linejoin="round" stroke-width="1"/><path d="M282.649,211.15H278.24l.475,1.461a.687.687,0,0,0,.649.475h2.323a.674.674,0,0,0,.662-.525Z" transform="translate(-8065.102 -10384.095)" fill="#fff" stroke="#263238" stroke-linecap="round" stroke-linejoin="round" stroke-width="1"/><line x2="23.229" transform="translate(-7769.353 -10180.913)" fill="none" stroke="#fff" stroke-linecap="round" stroke-linejoin="round" stroke-width="2"/><line x2="71.098" transform="translate(-7769.353 -10172.82)" fill="none" stroke="#fff" stroke-linecap="round" stroke-linejoin="round" stroke-width="1"/><line x2="71.098" transform="translate(-7769.353 -10166.127)" fill="none" stroke="#fff" stroke-linecap="round" stroke-linejoin="round" stroke-width="1"/><line x2="71.098" transform="translate(-7769.353 -10158.732)" fill="none" stroke="#fff" stroke-linecap="round" stroke-linejoin="round" stroke-width="1"/><path d="M330.233,153.8H225.64a7.98,7.98,0,0,0-7.98,7.98v42.836l9.429-9.991H330.233a7.968,7.968,0,0,0,7.968-7.968V161.78a7.968,7.968,0,0,0-7.968-7.98Z" transform="translate(-8080.179 -10398.369)" fill="#2cc3ff"/><circle cx="11.215" cy="11.215" r="11.215" transform="translate(-7854.585 -10233.148) rotate(-9.54)" fill="#fff"/><path d="M234.466,163.552a4.259,4.259,0,0,0-5.607,2.5c-1.536,4.059.387,9.654.387,11.964s2.323,4.259,4.833,4.446,5.795.574,7.718-2.5,1.161-9.841.387-13.738S237.164,163.353,234.466,163.552Z" transform="translate(-8077.54 -10396.019)" fill="#fff" stroke="#263238" stroke-linecap="round" stroke-linejoin="round" stroke-width="1"/><path d="M238.992,169.829s1.249-1.574,1.449,0-2.011,3.534-2.011,3.534Z" transform="translate(-8075.01 -10394.554)" fill="#fff" stroke="#263238" stroke-linecap="round" stroke-linejoin="round" stroke-width="1"/><path d="M230.15,169.829s-1.174-1.574-1.436,0,2.011,3.534,2.011,3.534Z" transform="translate(-8077.433 -10394.554)" fill="#fff" stroke="#263238" stroke-linecap="round" stroke-linejoin="round" stroke-width="1"/><path d="M235.884,163.5s-4.434-.337-5.458,2.61a17.872,17.872,0,0,0,0,8.655c.337.9,3.185,5.345,3.971,5.682a3.984,3.984,0,0,0,3.072-.225c.35-.462,3.185-4.671,3.422-6.144a57.783,57.783,0,0,0-.125-6.519,4.1,4.1,0,0,0-2.5-3.534A7.494,7.494,0,0,0,235.884,163.5Z" transform="translate(-8077.134 -10395.957)" fill="#fff" stroke="#263238" stroke-linecap="round" stroke-linejoin="round" stroke-width="1"/><path d="M232,164.973s7.169,6.582,8.6,6.582,1.624-4.846.087-7.169S231.8,160.7,232,164.973Z" transform="translate(-8076.611 -10396.278)" fill="#fff" stroke="#263238" stroke-linecap="round" stroke-linejoin="round" stroke-width="1"/><line x2="23.229" transform="translate(-7824.728 -10235.789)" fill="none" stroke="#263238" stroke-linecap="round" stroke-linejoin="round" stroke-width="2"/><line x2="71.098" transform="translate(-7824.728 -10227.696)" fill="none" stroke="#263238" stroke-linecap="round" stroke-linejoin="round" stroke-width="1"/><line x2="71.098" transform="translate(-7824.728 -10221.015)" fill="none" stroke="#263238" stroke-linecap="round" stroke-linejoin="round" stroke-width="1"/><line x2="71.098" transform="translate(-7824.728 -10213.621)" fill="none" stroke="#263238" stroke-linecap="round" stroke-linejoin="round" stroke-width="1"/><rect width="44.21" height="273.328" transform="translate(-7919.667 -10305.014)" fill="#2cc3ff"/><g transform="translate(-7918.787 -10246.293)"><circle cx="14.15" cy="14.15" r="14.15" transform="translate(0 20.011) rotate(-45)" fill="#fff"/><path d="M188.769,159.912s-5.12-1.948-7.069,3.172.487,12.176.487,15.1,2.922,5.358,6.094,5.607,7.306.724,9.741-3.172,1.461-12.426.487-17.3S192.179,159.663,188.769,159.912Z" transform="translate(-170.529 -150.646)" fill="#fff" stroke="#263238" stroke-linecap="round" stroke-linejoin="round" stroke-width="1"/><path d="M194.474,167.835s1.486-1.973,1.823,0-2.5,4.459-2.5,4.459Z" transform="translate(-167.33 -148.802)" fill="#fff" stroke="#263238" stroke-linecap="round" stroke-linejoin="round" stroke-width="1"/><path d="M183.369,167.835s-1.486-1.973-1.823,0,2.5,4.459,2.5,4.459Z" transform="translate(-170.387 -148.802)" fill="#fff" stroke="#263238" stroke-linecap="round" stroke-linejoin="round" stroke-width="1"/><path d="M190.56,159.853s-5.595-.425-6.894,3.3-.425,9.766,0,10.915,4.021,6.744,5,7.169,3.447.287,3.884-.287,4.021-5.882,4.3-7.743a68.507,68.507,0,0,0-.1-8.168,5.145,5.145,0,0,0-3.16-4.458,9.59,9.59,0,0,0-3.022-.724Z" transform="translate(-170.022 -150.574)" fill="#fff" stroke="#263238" stroke-linecap="round" stroke-linejoin="round" stroke-width="1"/><path d="M185.651,161.694s9.042,8.3,10.853,8.3,2.048-6.107.1-9.042S185.4,156.349,185.651,161.694Z" transform="translate(-169.359 -150.979)" fill="#fff" stroke="#263238" stroke-linecap="round" stroke-linejoin="round" stroke-width="1"/></g><g transform="translate(-7915.778 -10290.808)"><g transform="translate(0 0)"><circle cx="14.15" cy="14.15" r="14.15" transform="translate(0 6.472) rotate(-13.22)" fill="#fff"/><path d="M194.474,129.806s1.486-1.986,1.823,0-2.5,4.446-2.5,4.446Z" transform="translate(-170.339 -113.752)" fill="#fff" stroke="#263238" stroke-linecap="round" stroke-linejoin="round" stroke-width="1"/><path d="M183.369,129.806s-1.486-1.986-1.823,0,2.5,4.446,2.5,4.446Z" transform="translate(-173.395 -113.752)" fill="#fff" stroke="#263238" stroke-linecap="round" stroke-linejoin="round" stroke-width="1"/><path d="M190.56,121.823s-5.595-.437-6.894,3.3-.425,9.754,0,10.9,4.021,6.744,5,7.181,3.447.287,3.884-.287,4.021-5.882,4.3-7.756a68.337,68.337,0,0,0-.15-8.218,5.12,5.12,0,0,0-3.16-4.458A9.255,9.255,0,0,0,190.56,121.823Z" transform="translate(-173.031 -115.523)" fill="#fff" stroke="#263238" stroke-linecap="round" stroke-linejoin="round" stroke-width="1"/><path d="M196.74,126.944a5.12,5.12,0,0,0-3.16-4.458,9.253,9.253,0,0,0-3-.662s-5.595-.437-6.894,3.3a18.346,18.346,0,0,0-.637,6.557c.287.325,1.249,1.324,1.074,0-.162-1.486-.325-5.932.824-6.931s1.324-1.811,2.972-.487,1.486,2.5,3.135,1.648,1.973-2.648,3.459-1.986,1,3.747,1,5.283,0,4.284.987,2.972a4.019,4.019,0,0,0,.437-.9C196.865,129.828,196.74,128.192,196.74,126.944Z" transform="translate(-173.029 -115.523)" fill="#263238" stroke="#263238" stroke-linecap="round" stroke-linejoin="round" stroke-width="1"/></g></g><circle cx="14.15" cy="14.15" r="14.15" transform="translate(-7912.923 -10193.203)" fill="#fff"/><path d="M194.474,205.655s1.486-1.973,1.823,0-2.5,4.458-2.5,4.458Z" transform="translate(-8086.117 -10385.682)" fill="#fff" stroke="#263238" stroke-linecap="round" stroke-linejoin="round" stroke-width="1"/><path d="M183.369,205.655s-1.486-1.973-1.823,0,2.5,4.458,2.5,4.458Z" transform="translate(-8089.174 -10385.682)" fill="#fff" stroke="#263238" stroke-linecap="round" stroke-linejoin="round" stroke-width="1"/><path d="M190.56,197.673s-5.595-.437-6.894,3.3-.425,9.766,0,10.915,4.021,6.744,5,7.169,3.447.287,3.884-.287,4.021-5.882,4.3-7.743a68.5,68.5,0,0,0-.15-8.23,5.12,5.12,0,0,0-3.16-4.459,9.593,9.593,0,0,0-2.972-.662Z" transform="translate(-8088.809 -10387.452)" fill="#fff" stroke="#263238" stroke-linecap="round" stroke-linejoin="round" stroke-width="1"/><path d="M196.74,202.794a5.12,5.12,0,0,0-3.16-4.458,9.593,9.593,0,0,0-3-.662s-5.595-.437-6.894,3.3a18.371,18.371,0,0,0-.637,6.557c.287.325,1.249,1.336,1.074.062-.162-1.474-.325-5.932.824-6.919s1.324-1.823,2.972-.5,1.486,2.5,3.135,1.649,1.973-2.635,3.459-1.973,1,3.747,1,5.27,0,4.3.987,2.972a4.173,4.173,0,0,0,.437-.887C196.865,205.691,196.74,204.055,196.74,202.794Z" transform="translate(-8088.808 -10387.452)" fill="#263238" stroke="#263238" stroke-linecap="round" stroke-linejoin="round" stroke-width="1"/><path d="M184.54,200.756a8.829,8.829,0,0,0,11.789,2.123,1.866,1.866,0,0,0,1.773-2.123c0-2.123.624-1.249-2.5-1.249S185.364,193.825,184.54,200.756Z" transform="translate(-8088.421 -10387.539)" fill="#263238" stroke="#263238" stroke-linecap="round" stroke-linejoin="round" stroke-width="1"/><path d="M189.57,206.22H184l.587,1.836a.862.862,0,0,0,.824.587h2.86a.862.862,0,0,0,.837-.649Z" transform="translate(-8088.556 -10385.322)" fill="#fff" stroke="#263238" stroke-linecap="round" stroke-linejoin="round" stroke-width="1"/><path d="M194.5,206.22H188.94l.587,1.836a.874.874,0,0,0,.824.587h2.872a.837.837,0,0,0,.824-.649Z" transform="translate(-8087.327 -10385.322)" fill="#fff" stroke="#263238" stroke-linecap="round" stroke-linejoin="round" stroke-width="1"/><line x2="18.209" transform="translate(-7907.827 -10252.611)" fill="none" stroke="#263238" stroke-linecap="round" stroke-linejoin="round" stroke-width="2"/><line x2="18.209" transform="translate(-7907.827 -10206.065)" fill="none" stroke="#263238" stroke-linecap="round" stroke-linejoin="round" stroke-width="2"/><line x2="18.209" transform="translate(-7907.827 -10159.509)" fill="none" stroke="#263238" stroke-linecap="round" stroke-linejoin="round" stroke-width="2"/><g transform="translate(-8165.122 -10088.372)"><path d="M88.361,298.8s0-4.334-6.057-10.4-9.991-9.529-9.991-9.529-3.035,9.991,2.6,16.035a107.1,107.1,0,0,0,13.45,11.689Z" transform="translate(-36.432 -278.87)" fill="#2cc3ff"/><path d="M81.361,320.462s0-4.334-6.057-10.391-9.991-9.541-9.991-9.541-3.035,9.991,2.6,16.035a107.108,107.108,0,0,0,13.45,11.689Z" transform="translate(-38.174 -273.479)" fill="#2cc3ff"/><path d="M84.884,304.351s.45-4.309,7.131-9.7,10.9-8.417,10.9-8.417,1.973,10.228-4.271,15.661a106.712,106.712,0,0,1-14.587,10.2Z" transform="translate(-33.306 -277.038)" fill="#2cc3ff"/><path d="M76.524,329.533s.912-4.234,8.118-8.892,11.739-7.231,11.739-7.231.874,10.378-5.907,15.124A107.079,107.079,0,0,1,74.9,337.151Z" transform="translate(-35.585 -270.274)" fill="#2cc3ff"/><path d="M77.8,358.182s0-4.334,6.07-10.391,9.991-9.541,9.991-9.541,3.035,9.991-2.6,16.036a106.765,106.765,0,0,1-13.438,11.689Z" transform="translate(-34.863 -264.092)" fill="#2cc3ff"/><path d="M80.691,365.385s.624-4.3-4.521-11.152-8.5-10.853-8.5-10.853-4.421,9.429.287,16.235A106.849,106.849,0,0,0,79.592,373.1Z" transform="translate(-37.854 -262.815)" fill="#2cc3ff"/><path d="M72.93,385.172s0-4.334,6.07-10.4,9.991-9.529,9.991-9.529,3.035,9.991-2.6,16.023a106.237,106.237,0,0,1-13.438,11.7Z" transform="translate(-36.075 -257.375)" fill="#2cc3ff"/><path d="M76.2,404.141s-1.1-4.2,3.235-11.59S86.658,380.8,86.658,380.8s5.458,8.879,1.549,16.16a106.628,106.628,0,0,1-9.991,14.724Z" transform="translate(-35.291 -253.503)" fill="#2cc3ff"/><path d="M88.638,293.94a120.679,120.679,0,0,1-1.661,13.45c-2.4,12.389-8.392,20.344-10.79,31.584s4.5,25.6,2.648,39.964-7.493,22.355-5.845,31.946S82.98,446.44,82.98,446.44" transform="translate(-36.135 -275.119)" fill="none" stroke="#263238" stroke-linecap="round" stroke-linejoin="round" stroke-width="0.5"/><line y1="5.02" x2="6.532" transform="translate(51.516 25.165)" fill="none" stroke="#263238" stroke-linecap="round" stroke-linejoin="round" stroke-width="0.5"/><line x1="2.735" y1="4.871" transform="translate(49.081 19.545)" fill="none" stroke="#263238" stroke-linecap="round" stroke-linejoin="round" stroke-width="0.5"/><path d="M75.78,331.205s5.483-4.1,11.1-8.205" transform="translate(-35.366 -267.887)" fill="none" stroke="#263238" stroke-linecap="round" stroke-linejoin="round" stroke-width="0.5"/><path d="M79.936,325.692A87.761,87.761,0,0,0,70.22,310.83" transform="translate(-36.75 -270.916)" fill="none" stroke="#263238" stroke-linecap="round" stroke-linejoin="round" stroke-width="0.5"/><path d="M78,362.258A67.44,67.44,0,0,1,89.7,346.61" transform="translate(-34.814 -262.011)" fill="none" stroke="#263238" stroke-linecap="round" stroke-linejoin="round" stroke-width="0.5"/><path d="M79.026,367.3a76.8,76.8,0,0,0-5.92-11.24c-3.2-4.721-3.647-5.32-3.647-5.32" transform="translate(-36.939 -260.984)" fill="none" stroke="#263238" stroke-linecap="round" stroke-linejoin="round" stroke-width="0.5"/><path d="M72.93,391.221a73.205,73.205,0,0,1,4.933-9.991,63.488,63.488,0,0,1,6.394-8.33" transform="translate(-36.075 -255.469)" fill="none" stroke="#263238" stroke-linecap="round" stroke-linejoin="round" stroke-width="0.5"/><path d="M77.777,409.93a18.608,18.608,0,0,1,1.636-9.591c2.285-4.408,4.871-10.191,5.932-12.489" transform="translate(-34.89 -251.748)" fill="none" stroke="#263238" stroke-linecap="round" stroke-linejoin="round" stroke-width="0.5"/><path d="M53.225,344.007s-.462-2.723,2.673-7.181,5.22-7.056,5.22-7.056,2.985,5.92.112,10.328a67.064,67.064,0,0,1-7.156,8.742Z" transform="translate(-40.985 -266.203)" fill="#2cc3ff"/><path d="M60,356.835s-.462-2.71,2.685-7.168S67.9,342.61,67.9,342.61s2.985,5.92.112,10.328a68.048,68.048,0,0,1-7.156,8.742Z" transform="translate(-39.298 -263.007)" fill="#2cc3ff"/><path d="M56.708,346.714s-.762-2.66-5.533-5.308-7.755-4.1-7.755-4.1-.125,6.619,4.384,9.354a67.717,67.717,0,0,0,10.253,4.821Z" transform="translate(-43.42 -264.326)" fill="#2cc3ff"/><path d="M65,361.588s-1.024-2.5-6.045-4.708-8.143-3.26-8.143-3.26.574,6.607,5.333,8.855a68.446,68.446,0,0,0,10.715,3.747Z" transform="translate(-41.581 -260.267)" fill="#2cc3ff"/><path d="M66.647,379.765s-.475-2.723-5-5.857S54.433,369,54.433,369s-.824,6.569,3.359,9.766a67.242,67.242,0,0,0,9.691,5.87Z" transform="translate(-40.695 -256.439)" fill="#2cc3ff"/><path d="M65.029,384.914s-.862-2.623,1.624-7.493,4.159-7.731,4.159-7.731,3.747,5.433,1.574,10.216a67.436,67.436,0,0,1-5.832,9.716Z" transform="translate(-38.078 -256.267)" fill="#2cc3ff"/><path d="M71.192,401.7s.312-2.735,4.6-6.132,6.981-5.3,6.981-5.3,1.249,6.519-2.8,9.991a68.685,68.685,0,0,1-9.342,6.419Z" transform="translate(-36.648 -251.146)" fill="#2cc3ff"/><path d="M72.639,396.143s-.475-2.71-5-5.857-7.281-4.9-7.281-4.9-.824,6.582,3.372,9.766a67.179,67.179,0,0,0,9.691,5.882Z" transform="translate(-39.219 -252.36)" fill="#2cc3ff"/><path d="M72.123,408.538s.237-2.747-3.285-6.919S63.031,395,63.031,395s-2.5,6.157.787,10.3a68.191,68.191,0,0,0,7.893,8.143Z" transform="translate(-38.765 -249.969)" fill="#2cc3ff"/><path d="M52.85,340.66a79.813,79.813,0,0,0,2.5,8.255c2.847,7.493,7.493,11.864,10.191,18.621s0,16.535,2.685,25.352,7.094,13.213,7.131,19.395-2.335,23.379-2.335,23.379" transform="translate(-41.073 -263.492)" fill="none" stroke="#263238" stroke-linecap="round" stroke-linejoin="round" stroke-width="0.5"/><line x1="4.646" y1="2.435" transform="translate(8.992 81.751)" fill="none" stroke="#263238" stroke-linecap="round" stroke-linejoin="round" stroke-width="0.5"/><line y1="3.347" x2="1.186" transform="translate(12.814 77.243)" fill="none" stroke="#263238" stroke-linecap="round" stroke-linejoin="round" stroke-width="0.5"/><path d="M64.355,362.786s-3.884-1.973-7.855-3.946" transform="translate(-40.164 -258.968)" fill="none" stroke="#263238" stroke-linecap="round" stroke-linejoin="round" stroke-width="0.5"/><path d="M60.67,359.968a55.553,55.553,0,0,1,4.483-10.378" transform="translate(-39.127 -261.27)" fill="none" stroke="#263238" stroke-linecap="round" stroke-linejoin="round" stroke-width="0.5"/><path d="M66.419,382.432a43.237,43.237,0,0,0-9.029-8.542" transform="translate(-39.943 -255.222)" fill="none" stroke="#263238" stroke-linecap="round" stroke-linejoin="round" stroke-width="0.5"/><path d="M65.69,385.97a47.68,47.68,0,0,1,2.5-7.693c1.486-3.3,1.711-3.747,1.711-3.747" transform="translate(-37.877 -255.063)" fill="none" stroke="#263238" stroke-linecap="round" stroke-linejoin="round" stroke-width="0.5"/><path d="M70.7,403.365a41.063,41.063,0,0,1,5-5.183,27.206,27.206,0,0,0,3.247-2.822" transform="translate(-36.63 -249.879)" fill="none" stroke="#263238" stroke-linecap="round" stroke-linejoin="round" stroke-width="0.5"/><path d="M72.679,400.046a46.089,46.089,0,0,0-4.171-5.72A41.484,41.484,0,0,0,63.6,389.78" transform="translate(-38.397 -251.268)" fill="none" stroke="#263238" stroke-linecap="round" stroke-linejoin="round" stroke-width="0.5"/><path d="M71.224,412.393a11.8,11.8,0,0,0-2.073-5.845c-1.911-2.5-4.159-5.857-5.07-7.168" transform="translate(-38.278 -248.879)" fill="none" stroke="#263238" stroke-linecap="round" stroke-linejoin="round" stroke-width="0.5"/><path d="M59,414.33H98.7v29.086a3.747,3.747,0,0,1-3.747,3.747H62.834a3.747,3.747,0,0,1-3.747-3.747V414.33Z" transform="translate(-39.542 -245.158)" fill="#263238"/><path d="M98.977,419.719H59.612a3.11,3.11,0,0,1-3.072-3.1h0a3.11,3.11,0,0,1,3.072-3.122H98.977a3.11,3.11,0,0,1,3.1,3.122h0a3.11,3.11,0,0,1-3.1,3.1Z" transform="translate(-40.154 -245.365)" fill="#263238"/></g><g transform="translate(-7734.772 -10120.119)"><path d="M402.223,302.83H340.941c-4.558,0-4.721.549-4.721,4.7V388.79h70.7V307.526C406.944,303.38,406.781,302.83,402.223,302.83Z" transform="translate(-315.9 -241.161)" fill="#2cc3ff" stroke="#263238" stroke-linecap="round" stroke-linejoin="round" stroke-width="1"/><rect width="5.67" height="45.784" transform="translate(52.129 170.496)" fill="#263238"/><rect width="12.476" height="37.991" transform="translate(48.719 179.425)" fill="#263238"/><rect width="39.702" height="13.613" transform="translate(35.106 160.28)" fill="#263238"/><circle cx="2.772" cy="2.772" r="2.772" transform="translate(11.453 228.681)" fill="#263238"/><path d="M399.9,439.332a2.773,2.773,0,1,0-2.773,2.773A2.773,2.773,0,0,0,399.9,439.332Z" transform="translate(-301.433 -207.879)" fill="#263238"/><path d="M366.451,427.572l-37.591,8.979v2.61l43.386-3.584V427.41Z" transform="translate(-317.732 -210.156)" fill="#263238"/><path d="M370.1,427.572l37.6,8.979v2.61l-43.4-3.584V427.41Z" transform="translate(-308.909 -210.156)" fill="#263238"/><path d="M364.481,443.471h0a2.011,2.011,0,0,1-2.011-2.011v-8.367a2.023,2.023,0,0,1,2.011-2.023h0a2.023,2.023,0,0,1,2.011,2.023v8.367a2.011,2.011,0,0,1-2.011,2.011Z" transform="translate(-309.367 -209.246)" fill="#263238"/><rect width="5.982" height="12.401" transform="translate(58.098 229.655) rotate(180)" fill="#263238"/><rect width="77.505" height="20.044" rx="2.25" transform="translate(16.823 141.634)" fill="#2cc3ff" stroke="#263238" stroke-linecap="round" stroke-linejoin="round" stroke-width="1"/><path d="M348.056,345.43l-4.646,9.354,12.451,17.047h35.48l8.392-14.362-4.121-12.039Z" transform="translate(-314.111 -230.559)" fill="#263238" stroke="#263238" stroke-linecap="round" stroke-linejoin="round" stroke-width="1"/><path d="M345.115,352.92s-6.881,4.321-8.492,11.4c-.787,3.472,6.057,15.673,9.991,16.985,3.747,1.249,24.778-13.638,24.778-13.638" transform="translate(-315.816 -228.695)" fill="#263238" stroke="#263238" stroke-linecap="round" stroke-linejoin="round" stroke-width="1"/><path d="M346.785,355.852s-8.118-1.249-10.141,4.608c-1.411,4.109.437,16.235.9,17.622s8.318,68.688,8.318,68.688h11.065l3.747-84.923" transform="translate(-315.925 -227.993)" fill="#263238" stroke="#263238" stroke-linecap="round" stroke-linejoin="round" stroke-width="1"/><path d="M346.588,428.64l-1.249,5.158L333.2,441.079s.387,2.3,2.223,2.3h21.031a2.673,2.673,0,0,0,2.723-3.035L357.7,428.59Z" transform="translate(-316.652 -209.863)" fill="#fff" stroke="#263238" stroke-linecap="round" stroke-linejoin="round" stroke-width="1"/><path d="M333.25,438.72c.125.512.637,2.136,2.186,2.136h21.031a2.66,2.66,0,0,0,2.6-2.136Z" transform="translate(-316.639 -207.342)" fill="#fff" stroke="#263238" stroke-linecap="round" stroke-linejoin="round" stroke-width="1"/><path d="M342.94,432.774a33.719,33.719,0,0,1,8.817.6" transform="translate(-314.228 -208.838)" fill="none" stroke="#263238" stroke-linecap="round" stroke-linejoin="round" stroke-width="1"/><line x1="3.547" y2="4.496" transform="translate(33.345 228.718)" fill="none" stroke="#263238" stroke-linecap="round" stroke-linejoin="round" stroke-width="1"/><path d="M392.236,352.92s6.881,4.321,8.492,11.4c.787,3.472-6.057,15.673-9.991,16.985-3.747,1.249-24.778-13.638-24.778-13.638" transform="translate(-308.499 -228.695)" fill="#263238" stroke="#263238" stroke-linecap="round" stroke-linejoin="round" stroke-width="1"/><path d="M388.465,355.852s8.118-1.249,10.141,4.608c1.411,4.109-.437,16.235-.9,17.622s-8.318,68.688-8.318,68.688H378.324l-3.684-84.923" transform="translate(-306.339 -227.993)" fill="#263238" stroke="#263238" stroke-linecap="round" stroke-linejoin="round" stroke-width="1"/><path d="M388.952,428.63l1.249,5.158,12.139,7.281s-.387,2.3-2.223,2.3H379.061a2.673,2.673,0,0,1-2.648-2.985l1.474-11.752Z" transform="translate(-305.902 -209.853)" fill="#fff" stroke="#263238" stroke-linecap="round" stroke-linejoin="round" stroke-width="1"/><path d="M402.264,438.72c-.125.512-.637,2.136-2.185,2.136H379.048a2.66,2.66,0,0,1-2.6-2.136Z" transform="translate(-305.888 -207.342)" fill="#fff" stroke="#263238" stroke-linecap="round" stroke-linejoin="round" stroke-width="1"/><path d="M389.187,432.774a33.719,33.719,0,0,0-8.817.6" transform="translate(-304.913 -208.838)" fill="none" stroke="#263238" stroke-linecap="round" stroke-linejoin="round" stroke-width="1"/><line x2="3.547" y2="4.496" transform="translate(76.094 228.718)" fill="none" stroke="#263238" stroke-linecap="round" stroke-linejoin="round" stroke-width="1"/><path d="M379.775,286.25l-1.386.7-12.451-.325-1.324,1.149v-.824l-1.386-.7L338.35,297.827l10.965,62.331h47.557l7.556-62.331Z" transform="translate(-315.37 -245.287)" fill="#fff" stroke="#263238" stroke-linecap="round" stroke-linejoin="round" stroke-width="1"/><path d="M358.9,285.033s-5.108,3.434-5.108,4.508-.724,12.489-.724,12.489l6.444-2.148,8.742,7.493,8.492-7.168,7.88,1.8-2.5-13.251-9.666-6.444Z" transform="translate(-311.707 -246.268)" fill="#fff" stroke="#263238" stroke-linecap="round" stroke-linejoin="round" stroke-width="1"/><path d="M391.89,295.52,413.645,332.4l-16.3,1.873-8.617-12.027Z" transform="translate(-302.832 -242.98)" fill="#fff" stroke="#263238" stroke-linecap="round" stroke-linejoin="round" stroke-width="1"/><path d="M342.85,295.52,321.22,332.4l16.3,1.873,12.426-13.987Z" transform="translate(-319.633 -242.98)" fill="#fff" stroke="#263238" stroke-linecap="round" stroke-linejoin="round" stroke-width="1"/><path d="M376.228,294.911,367,309.672l-9.029-14.762V273.38h18.258Z" transform="translate(-310.487 -248.49)" fill="#fff" stroke="#263238" stroke-linecap="round" stroke-linejoin="round" stroke-width="1"/><path d="M356.992,268.832s-3.384-.887-3.047,1.486,1.361,6.781,3.047,7.793l1.7,1.012Z" transform="translate(-311.495 -249.662)" fill="#fff" stroke="#263238" stroke-linecap="round" stroke-linejoin="round" stroke-width="1"/><path d="M374.878,268.832s3.384-.887,3.047,1.486-1.361,6.781-3.047,7.793l-1.7,1.012Z" transform="translate(-306.702 -249.662)" fill="#fff" stroke="#263238" stroke-linecap="round" stroke-linejoin="round" stroke-width="1"/><path d="M380.939,268.136a12.876,12.876,0,0,0-25.739,0,13.162,13.162,0,0,0,.612,3.934l3.285,15.411,5.982,8.392h5.77l5.807-7.306,3.547-16.135A12.825,12.825,0,0,0,380.939,268.136Z" transform="translate(-311.177 -252.9)" fill="#fff" stroke="#263238" stroke-linecap="round" stroke-linejoin="round" stroke-width="1"/><path d="M373.871,265.208a16.237,16.237,0,0,0-1.361,5.083,23.367,23.367,0,0,0,1.7,6.095s4.059-8.467,3.747-11.515S373.522,264.159,373.871,265.208Z" transform="translate(-306.869 -250.983)" fill="#263238" stroke="#263238" stroke-linecap="round" stroke-linejoin="round" stroke-width="1"/><path d="M357.055,278.178s0-.537.087-1.324c.187-2.186.7-6.407,1.948-7.144,1.686-1.024,1.511-6.369,1.511-6.369s-2.36,2.673,5.77,5.383,14.724,1.661,19.133-4.1.337-9.829-.337-7.793-2.036,4.746-4.408,2.71-6.095-6.095-12.863-6.095-9.829,6.095-9.829,6.095a6.657,6.657,0,0,0-3.747,5.757C354.345,269.361,357.055,278.178,357.055,278.178Z" transform="translate(-311.396 -253.45)" fill="#263238" stroke="#263238" stroke-linecap="round" stroke-linejoin="round" stroke-width="1"/><path d="M379.582,266.972c-4.8.2-8.879-3.035-13.038-5.882s-6.994,0-6.994,0a7.194,7.194,0,0,1,6.632-5.707c5.657-.362,7.493,7.406,12.776,8.08" transform="translate(-310.094 -252.972)" fill="none" stroke="#fff" stroke-linecap="round" stroke-linejoin="round" stroke-width="0.5"/><path d="M367.03,273H355.69l1.249,3.747A1.736,1.736,0,0,0,358.6,278h5.857a1.761,1.761,0,0,0,1.7-1.324Z" transform="translate(-311.055 -248.585)" fill="#fff" stroke="#263238" stroke-linecap="round" stroke-linejoin="round" stroke-width="1"/><path d="M377.087,273H365.76l1.249,3.747A1.761,1.761,0,0,0,368.682,278h5.857a1.761,1.761,0,0,0,1.7-1.324Z" transform="translate(-308.549 -248.585)" fill="#fff" stroke="#263238" stroke-linecap="round" stroke-linejoin="round" stroke-width="1"/><line x1="0.574" y1="5.532" transform="translate(44.061 18.908)" fill="#fff" stroke="#263238" stroke-linecap="round" stroke-linejoin="round" stroke-width="1"/><line y1="5.245" x2="1.299" transform="translate(68.539 19.195)" fill="#fff" stroke="#263238" stroke-linecap="round" stroke-linejoin="round" stroke-width="1"/><line x2="1.236" transform="translate(55.975 24.44)" fill="#fff" stroke="#263238" stroke-linecap="round" stroke-linejoin="round" stroke-width="1"/><line x2="1.998" transform="translate(55.663 26.201)" fill="#fff" stroke="#263238" stroke-linecap="round" stroke-linejoin="round" stroke-width="1"/><path d="M367.892,280.16s-.849,1.249-1.861,1.249-1.861-1.249-1.861-1.249" transform="translate(-308.944 -246.803)" fill="none" stroke="#263238" stroke-linecap="round" stroke-linejoin="round" stroke-width="1"/><path d="M376.146,323.632s-4.733-4.134-5.932-3.747-2.6,5.582-1.574,6.906,3.285-3.2,3.285-3.2l4.259,5.882Z" transform="translate(-307.92 -236.923)" fill="#fff" stroke="#263238" stroke-linecap="round" stroke-linejoin="round" stroke-width="1"/><path d="M376.017,324.35l-4.384,1.574a11.9,11.9,0,0,1-3.672,2.985c-2.011.887-3.035,1.836-.812,2.81s5.42-2.5,5.42-2.5l5,.512a3.859,3.859,0,0,0-1.549-5.383Z" transform="translate(-308.515 -235.805)" fill="#fff" stroke="#263238" stroke-linecap="round" stroke-linejoin="round" stroke-width="1"/><path d="M377.44,332.82a6.68,6.68,0,0,0,4.371.737c2.423-.45,6.319-5.507,6.319-5.507l-1.961-3.622-7.493-.187Z" transform="translate(-305.642 -235.832)" fill="#fff" stroke="#263238" stroke-linecap="round" stroke-linejoin="round" stroke-width="1"/><path d="M374.661,321.444s-2.772,7.256-2.435,8.442,5,4.059,6.519,3.634c.987-.275,3.01-2.8,4.309-4.5a1.973,1.973,0,0,0-.375-2.748C380.268,324.441,375.7,321.144,374.661,321.444Z" transform="translate(-306.947 -236.533)" fill="#fff" stroke="#263238" stroke-linecap="round" stroke-linejoin="round" stroke-width="1"/><line y1="8.392" x2="3.409" transform="translate(67.527 86.697)" fill="none" stroke="#263238" stroke-linecap="round" stroke-linejoin="round" stroke-width="1"/><line x1="4.696" y2="7.131" transform="translate(69.8 89.394)" fill="none" stroke="#263238" stroke-linecap="round" stroke-linejoin="round" stroke-width="1"/><path d="M381.81,324.316h0a18.134,18.134,0,0,1,1.062,9.354l-.062.35,29.311,2.5a5.582,5.582,0,0,0,4.808-5.645v-2.16a5.583,5.583,0,0,0-5.87-5.47Z" transform="translate(-304.554 -236.083)" fill="#fff" stroke="#263238" stroke-linecap="round" stroke-linejoin="round" stroke-width="1"/><path d="M348.45,323.632s4.721-4.134,5.92-3.747,2.61,5.582,1.586,6.906-3.285-3.2-3.285-3.2l-4.271,5.882Z" transform="translate(-312.869 -236.923)" fill="#fff" stroke="#263238" stroke-linecap="round" stroke-linejoin="round" stroke-width="1"/><path d="M349.462,324.35l4.4,1.574a11.726,11.726,0,0,0,3.672,2.985c2,.887,3.022,1.836.812,2.81s-5.42-2.5-5.42-2.5l-5,.512a3.872,3.872,0,0,1,1.536-5.383Z" transform="translate(-313.119 -235.805)" fill="#fff" stroke="#263238" stroke-linecap="round" stroke-linejoin="round" stroke-width="1"/><path d="M347.7,332.82a6.682,6.682,0,0,1-4.371.737c-2.423-.449-6.319-5.507-6.319-5.507l1.961-3.622,7.493-.187Z" transform="translate(-315.704 -235.832)" fill="#fff" stroke="#263238" stroke-linecap="round" stroke-linejoin="round" stroke-width="1"/><path d="M350.6,321.444s2.772,7.256,2.423,8.442-5,4.059-6.519,3.634c-.974-.275-3.01-2.8-4.3-4.5a1.973,1.973,0,0,1,.375-2.748C344.981,324.441,349.54,321.144,350.6,321.444Z" transform="translate(-314.508 -236.533)" fill="#fff" stroke="#263238" stroke-linecap="round" stroke-linejoin="round" stroke-width="1"/><line x1="3.409" y1="8.392" transform="translate(32.858 86.697)" fill="none" stroke="#263238" stroke-linecap="round" stroke-linejoin="round" stroke-width="1"/><line x2="4.696" y2="7.131" transform="translate(29.312 89.394)" fill="none" stroke="#263238" stroke-linecap="round" stroke-linejoin="round" stroke-width="1"/><path d="M346.489,324.316h0a23.79,23.79,0,0,0-.787,9.354v.35l-22.118,2.5c-2.111-.4-3.672-2.81-3.634-5.645v-2.161c0-3.16,2.048-5.632,4.421-5.47Z" transform="translate(-319.95 -236.083)" fill="#fff" stroke="#263238" stroke-linecap="round" stroke-linejoin="round" stroke-width="1"/></g><g transform="translate(-7722.882 -10089.009)"><rect width="66.19" height="2.348" transform="translate(0 62.456)" fill="#fff" stroke="#263238" stroke-linecap="round" stroke-linejoin="round" stroke-width="1"/><rect width="32.995" height="1.848" transform="translate(70.137 62.706)" fill="#fff" stroke="#263238" stroke-linecap="round" stroke-linejoin="round" stroke-width="1"/><rect width="76.968" height="49.63" transform="translate(52.415)" fill="#fff" stroke="#263238" stroke-linecap="round" stroke-linejoin="round" stroke-width="1"/><rect width="74.745" height="49.63" transform="translate(54.638)" fill="#263238" stroke="#263238" stroke-linecap="round" stroke-linejoin="round" stroke-width="1"/><rect width="18.683" height="42.512" transform="translate(85.36 22.879)" fill="#fff" stroke="#263238" stroke-linecap="round" stroke-linejoin="round" stroke-width="1"/><rect width="18.683" height="42.512" transform="translate(87.084 22.879)" fill="#263238" stroke="#263238" stroke-linecap="round" stroke-linejoin="round" stroke-width="1"/><path d="M398.21,297.08h20.357v29.111" transform="translate(-312.363 -273.701)" fill="none" stroke="#fff" stroke-linecap="round" stroke-linejoin="round" stroke-width="1"/></g><g transform="translate(-7827.275 -10085.163)"><rect width="13.837" height="16.06" transform="translate(26.114 46.47)" fill="#fff" stroke="#263238" stroke-linecap="round" stroke-linejoin="round" stroke-width="1"/><rect width="64.279" height="48.206" fill="#263238" stroke="#263238" stroke-linecap="round" stroke-linejoin="round" stroke-width="1"/><rect width="57.56" height="43.173" transform="translate(3.359 2.523)" fill="#fff" stroke="#263238" stroke-linecap="round" stroke-linejoin="round" stroke-width="1"/></g><g transform="translate(-7861.33 -10119.02)"><path d="M243.88,380.83l13.2,58.472,5.995-1.673-.4-59.309Z" transform="translate(-212.324 -223.472)" fill="#fff" stroke="#263238" stroke-linecap="round" stroke-linejoin="round" stroke-width="1"/><path d="M256.364,427.484l-7.993,14.25-1.611,2.935h8.8l6.794-9.641v9.229h2.96V428.745l-2.96-2.935Z" transform="translate(-211.607 -211.654)" fill="#fff" stroke="#263238" stroke-linecap="round" stroke-linejoin="round" stroke-width="1"/><path d="M287.535,380.83l-13.2,58.472-5.995-1.673.4-59.309Z" transform="translate(-206.236 -223.472)" fill="#fff" stroke="#263238" stroke-linecap="round" stroke-linejoin="round" stroke-width="1"/><path d="M274.922,427.484l8.005,14.25,1.6,2.935h-8.8l-6.794-9.641v9.229H265.98V428.745l2.947-2.935Z" transform="translate(-206.824 -211.654)" fill="#fff" stroke="#263238" stroke-linecap="round" stroke-linejoin="round" stroke-width="1"/><rect width="14.012" height="16.273" transform="translate(58.981 84.911)" fill="#fff" stroke="#263238" stroke-linecap="round" stroke-linejoin="round" stroke-width="1"/><path d="M269.26,368.08a16.81,16.81,0,1,1-16.81-16.81,16.81,16.81,0,0,1,16.81,16.81Z" transform="translate(-214.374 -230.204)" fill="#263238" stroke="#263238" stroke-linecap="round" stroke-linejoin="round" stroke-width="1"/><path d="M263.83,368.08a16.81,16.81,0,1,0,16.81-16.81,16.81,16.81,0,0,0-16.81,16.81Z" transform="translate(-207.359 -230.204)" fill="#263238" stroke="#263238" stroke-linecap="round" stroke-linejoin="round" stroke-width="1"/><path d="M258.64,281.766l.837,9.9,9.491.824L269.38,283S261.587,278.044,258.64,281.766Z" transform="translate(-208.65 -247.847)" fill="#fff" stroke="#263238" stroke-linecap="round" stroke-linejoin="round" stroke-width="1"/><path d="M253.919,290.769a10.853,10.853,0,0,1,7.169-3.16c4.933-.462,12.4-.187,15.061,1.636a16.859,16.859,0,0,1,4.4,4.846l-30.085-.512Z" transform="translate(-210.686 -246.097)" fill="#fff" stroke="#263238" stroke-linecap="round" stroke-linejoin="round" stroke-width="1"/><path d="M305.381,299.259c-3.21-3.647-6.744-6.344-10.528-6.669-11.527-1.012-23.916-2.81-35.58-.212-4.771,1.049-9.991,2.5-13.738,5.707s-5,8.068-7.631,12.189l-8.492,13.538q-5.32,8.392-10.615,16.91s-1.524,4.571,4.184,6.856,9.142-1.149,9.142-1.149L245.61,325.96l4.346,39.277h47.22l5-43.2c1.611,2.9,14.612,25.939,19.27,26.351,5,.462,7.681-.9,9.479-5.87,2-5.508-9.441-18.8-12.189-22.879C315.534,314.795,310.939,305.59,305.381,299.259Z" transform="translate(-218.612 -245.195)" fill="#fff" stroke="#263238" stroke-linecap="round" stroke-linejoin="round" stroke-width="1"/><path d="M303.695,296.661l15.449,22.992-20.944,10.3-49.78.687L228.85,314.17,241.9,295.624s11.677-5.832,31.222-6.182S303.695,296.661,303.695,296.661Z" transform="translate(-216.064 -245.594)" fill="#fff" stroke="#263238" stroke-linecap="round" stroke-linejoin="round" stroke-width="1"/><path d="M244.484,350.41l-3.572,14.312a10.578,10.578,0,0,0,.874,7.431l6.719,12.951h40.95l6.482-12.1a12.289,12.289,0,0,0,.6-10.3L291.7,350.41Z" transform="translate(-213.14 -230.418)" fill="#263238" stroke="#263238" stroke-linecap="round" stroke-linejoin="round" stroke-width="1"/><rect width="8.567" height="32.683" transform="translate(52.625 145.618)" fill="#263238" stroke="#263238" stroke-linecap="round" stroke-linejoin="round" stroke-width="1"/><rect width="12.913" height="44.335" transform="translate(50.439 173.156)" fill="#263238" stroke="#263238" stroke-linecap="round" stroke-linejoin="round" stroke-width="1"/><path d="M279.859,427.988l-5.982-1.611v-.287l-.549.137-.537-.137v.287l-5.982,1.611-40.788,7.618v2.985h94.627v-2.985Z" transform="translate(-216.769 -211.584)" fill="#263238" stroke="#263238" stroke-linecap="round" stroke-linejoin="round" stroke-width="1"/><circle cx="2.86" cy="2.86" r="2.86" transform="translate(9.926 226.058)" fill="#263238" stroke="#263238" stroke-linecap="round" stroke-linejoin="round" stroke-width="1"/><path d="M267.33,438.2a2.848,2.848,0,1,1-.834-2.026,2.86,2.86,0,0,1,.834,2.026Z" transform="translate(-207.911 -209.282)" fill="#263238" stroke="#263238" stroke-linecap="round" stroke-linejoin="round" stroke-width="1"/><path d="M302.6,438.2a2.848,2.848,0,1,1-.83-2.022,2.86,2.86,0,0,1,.83,2.022Z" transform="translate(-199.134 -209.282)" fill="#263238" stroke="#263238" stroke-linecap="round" stroke-linejoin="round" stroke-width="1"/><path d="M297.858,398.9H245.4a11.1,11.1,0,0,1-11.115-11.115l6.244-78.479a9.267,9.267,0,0,1,9.254-9.267H293.5a9.254,9.254,0,0,1,9.254,9.267L309,387.786a11.1,11.1,0,0,1-11.14,11.115Z" transform="translate(-214.71 -242.954)" fill="#2cc3ff" stroke="#263238" stroke-linecap="round" stroke-linejoin="round" stroke-width="1"/><path d="M297.858,402.211H245.4A11.1,11.1,0,0,1,234.29,391.1l6.244-78.479a9.267,9.267,0,0,1,9.254-9.267H293.5a9.254,9.254,0,0,1,9.254,9.267L309,391.1a11.1,11.1,0,0,1-11.14,11.115Z" transform="translate(-214.71 -242.13)" fill="#2cc3ff" stroke="#263238" stroke-linecap="round" stroke-linejoin="round" stroke-width="1"/><path d="M265.306,293.2h0a9.766,9.766,0,0,1-9.6-8c-.288-1.6-.525-3.2-.937-4.773l-2.136-11.4a12.689,12.689,0,0,1,12.676-12.689h0a12.688,12.688,0,0,1,12.688,12.689l-2.135,11.4c-.412,1.574-.649,3.172-.937,4.771A9.766,9.766,0,0,1,265.306,293.2Z" transform="translate(-210.146 -253.832)" fill="#263238" stroke="#263238" stroke-linecap="round" stroke-linejoin="round" stroke-width="1"/><path d="M258.776,259.413a10.528,10.528,0,0,0-6.432,8.8c-.512,6.594,1.524,13.875,1.861,18.621s-1.186,8.467-5.245,14.9-1.524,15.911,8.292,21.156,22.942,2.061,27.263-3.384c8.155-10.291-2.373-24.2-3.747-31.484s1.861-16.76-2.023-24.041-9.142-9.654-13.55-9.654S258.776,259.413,258.776,259.413Z" transform="translate(-211.521 -254.33)" fill="#fff" stroke="#263238" stroke-linecap="round" stroke-linejoin="round" stroke-width="1"/><path d="M277.453,275.15s-2.061,13.388,1.024,23.729-1.711,19.907-13.051,20.244-14.075-14.412-7.893-14.762,6.182,6.182,4.808,6.532" transform="translate(-209.729 -249.148)" fill="none" stroke="#263238" stroke-linecap="round" stroke-linejoin="round" stroke-width="1"/><path d="M256.45,258.4s5.358,3.747,5.707,9.242" transform="translate(-209.195 -253.317)" fill="none" stroke="#263238" stroke-linecap="round" stroke-linejoin="round" stroke-width="1"/></g><g transform="translate(-7941.185 -10090.32)"><rect width="14.974" height="17.384" transform="translate(39.602 50.305)" fill="#fff" stroke="#263238" stroke-linecap="round" stroke-linejoin="round" stroke-width="1"/><rect width="69.575" height="52.178" transform="translate(11.352)" fill="#263238" stroke="#263238" stroke-linecap="round" stroke-linejoin="round" stroke-width="1"/><rect width="62.294" height="46.72" transform="translate(15.073 2.989)" fill="#fff" stroke="#263238" stroke-linecap="round" stroke-linejoin="round" stroke-width="1"/><rect width="65.204" height="2.897" transform="translate(0 64.317)" fill="#fff" stroke="#263238" stroke-linecap="round" stroke-linejoin="round" stroke-width="1"/></g><g transform="translate(-8035.949 -10023.968)"><path d="M89.68,467.179H86.245L83.76,333.6h8.392Z" transform="translate(-77.553 -329.654)" fill="#fff" stroke="#263238" stroke-linecap="round" stroke-linejoin="round" stroke-width="1"/><path d="M112.89,467.179h-3.434L106.97,333.6h8.4Z" transform="translate(-71.777 -329.654)" fill="#263238" stroke="#263238" stroke-linecap="round" stroke-linejoin="round" stroke-width="1"/><path d="M281.86,467.179h-3.434L275.94,333.6h8.4Z" transform="translate(-29.725 -329.654)" fill="#263238" stroke="#263238" stroke-linecap="round" stroke-linejoin="round" stroke-width="1"/><path d="M311.68,467.179h-3.447L305.76,333.6h8.392Z" transform="translate(-22.304 -329.654)" fill="#263238" stroke="#263238" stroke-linecap="round" stroke-linejoin="round" stroke-width="1"/><path d="M303.19,467.179h-3.434L297.27,333.6h8.4Z" transform="translate(-24.417 -329.654)" fill="#263238" stroke="#263238" stroke-linecap="round" stroke-linejoin="round" stroke-width="1"/><path d="M409.85,467.179h-3.434L403.93,333.6h8.392Z" transform="translate(2.128 -329.654)" fill="#263238" stroke="#263238" stroke-linecap="round" stroke-linejoin="round" stroke-width="1"/><path d="M141.76,467.179h-3.447L135.84,333.6h8.392Z" transform="translate(-64.592 -329.654)" fill="#263238" stroke="#263238" stroke-linecap="round" stroke-linejoin="round" stroke-width="1"/><path d="M162.6,467.179h-3.434L156.68,333.6h8.4Z" transform="translate(-59.405 -329.654)" fill="#263238" stroke="#263238" stroke-linecap="round" stroke-linejoin="round" stroke-width="1"/><path d="M416.64,467.179h-3.447L410.72,333.6h8.392Z" transform="translate(3.818 -329.654)" fill="#263238" stroke="#263238" stroke-linecap="round" stroke-linejoin="round" stroke-width="1"/><path d="M426.54,467.179h-3.434L420.62,333.6h8.4Z" transform="translate(6.282 -329.654)" fill="#263238" stroke="#263238" stroke-linecap="round" stroke-linejoin="round" stroke-width="1"/><path d="M270.947,467.179h-3.434L265.04,333.6h8.392Z" transform="translate(-32.438 -329.654)" fill="#fff" stroke="#263238" stroke-linecap="round" stroke-linejoin="round" stroke-width="1"/><path d="M436.91,467.179h-3.434L430.99,333.6h8.392Z" transform="translate(8.862 -329.654)" fill="#fff" stroke="#263238" stroke-linecap="round" stroke-linejoin="round" stroke-width="1"/><rect width="452.329" height="34.544" transform="translate(3.172)" fill="#fff" stroke="#263238" stroke-linecap="round" stroke-linejoin="round" stroke-width="1"/><rect width="452.329" height="8.78" transform="translate(3.172)" fill="#263238" stroke="#263238" stroke-linecap="round" stroke-linejoin="round" stroke-width="1"/><rect width="458.66" height="4.796" fill="#fff" stroke="#263238" stroke-linecap="round" stroke-linejoin="round" stroke-width="1"/></g><g transform="translate(-7915.774 -10080.906)"><path d="M434.022,32.956a1.149,1.149,0,0,1-1.149-1.149V25.426l-8.577-.613a1.152,1.152,0,0,1,.179-2.3l9.649.715a1.149,1.149,0,0,1,1.072,1.149v4.672l5-5a1.174,1.174,0,0,1,.893-.332l5.718.46a2.68,2.68,0,0,0,2.629-2.731V4.978a2.68,2.68,0,0,0-2.655-2.68l-31.731,2.3h-.077a2.781,2.781,0,0,0-2.68,3.043,1.149,1.149,0,0,1-2.3,0A5.07,5.07,0,0,1,414.927,2.3L446.683,0h.077a5,5,0,0,1,4.978,4.978V21.443a4.978,4.978,0,0,1-4.978,4.978h-.1l-5.233-.408-6.612,6.612a1.149,1.149,0,0,1-.817.332" transform="translate(-410 0)" fill="#00c853"/><path d="M484.3,46.215a1.915,1.915,0,1,0,1.915-1.915,1.915,1.915,0,0,0-1.915,1.915" transform="translate(-465.333 -32.991)" fill="#00c853"/><path d="M522.9,45.1a2.3,2.3,0,1,0,2.3-2.3,2.3,2.3,0,0,0-2.3,2.3" transform="translate(-494.079 -31.874)" fill="#00c853"/><path d="M445.6,47.332a1.532,1.532,0,1,0,1.532-1.532,1.532,1.532,0,0,0-1.532,1.532" transform="translate(-436.512 -34.108)" fill="#00c853"/></g><g transform="translate(-8008.645 -10128.111)"><path d="M121.793,427.46,111.177,440.9s-1.761,2.123,1.411,2.5,19.108,0,19.108,0l-.512-13.276Z" transform="translate(-98.156 -202.151)" fill="#fff" stroke="#263238" stroke-linecap="round" stroke-linejoin="round" stroke-width="1"/><path d="M118.954,362.92l-.624,82.588a3.946,3.946,0,0,0,3.946,3.971h3.135a3.959,3.959,0,0,0,3.9-3.322l11.877-75.07Z" transform="translate(-96.254 -218.213)" fill="#263238" stroke="#263238" stroke-linecap="round" stroke-linejoin="round" stroke-width="1"/><circle cx="17.971" cy="17.971" r="17.971" transform="translate(19.03 158.075) rotate(-76.63)" fill="#263238" stroke="#263238" stroke-linecap="round" stroke-linejoin="round" stroke-width="1"/><path d="M178.974,427.46l10.6,13.438s1.773,2.123-1.411,2.5-19.1,0-19.1,0l.487-14.424Z" transform="translate(-83.626 -202.151)" fill="#fff" stroke="#263238" stroke-linecap="round" stroke-linejoin="round" stroke-width="1"/><path d="M182.155,362.92l.624,82.588a3.946,3.946,0,0,1-3.946,3.971h-3.11a3.934,3.934,0,0,1-3.9-3.322L160,371.088Z" transform="translate(-85.884 -218.213)" fill="#263238" stroke="#263238" stroke-linecap="round" stroke-linejoin="round" stroke-width="1"/><circle cx="17.971" cy="17.971" r="17.971" transform="translate(52.886 144.704) rotate(-45)" fill="#263238" stroke="#263238" stroke-linecap="round" stroke-linejoin="round" stroke-width="1"/><path d="M143.42,274.234l.874,10.59,10.153.874.437-10.141S146.5,270.263,143.42,274.234Z" transform="translate(-90.01 -240.652)" fill="#fff" stroke="#263238" stroke-linecap="round" stroke-linejoin="round" stroke-width="1"/><path d="M139.938,273.666h0a2.1,2.1,0,0,1-2.323-1.836l-.662-5.6a2.1,2.1,0,0,1,1.848-2.323h0a2.1,2.1,0,0,1,2.323,1.836l.662,5.582a2.1,2.1,0,0,1-1.848,2.335Z" transform="translate(-91.623 -242.857)" fill="#fff" stroke="#263238" stroke-linecap="round" stroke-linejoin="round" stroke-width="1"/><path d="M156.892,273.1h0a2.1,2.1,0,0,1-1.911-2.26l.462-5.607a2.1,2.1,0,0,1,2.273-1.923h0a2.1,2.1,0,0,1,1.911,2.273l-.462,5.607a2.1,2.1,0,0,1-2.273,1.911Z" transform="translate(-87.134 -243.005)" fill="#fff" stroke="#263238" stroke-linecap="round" stroke-linejoin="round" stroke-width="1"/><path d="M150.538,286.452h0a10.441,10.441,0,0,1-10.266-8.555c-.312-1.711-.562-3.422-1-5.1L137,260.6a13.55,13.55,0,0,1,13.55-13.55h0A13.563,13.563,0,0,1,164.1,260.6l-2.285,12.2c-.437,1.673-.7,3.384-1,5.1a10.44,10.44,0,0,1-10.278,8.555Z" transform="translate(-91.608 -247.05)" fill="#263238" stroke="#263238" stroke-linecap="round" stroke-linejoin="round" stroke-width="1"/><path d="M136.477,284.263a11.59,11.59,0,0,1,7.656-3.384c5.27-.487,14.037-1.736,16.872.212a103.794,103.794,0,0,1,8.742,7.581l-36.917-1.4Z" transform="translate(-92.646 -238.841)" fill="#fff" stroke="#263238" stroke-linecap="round" stroke-linejoin="round" stroke-width="1"/><path d="M127.075,287.34l-26.226,49.118s-1.624,4.883,4.483,7.318,9.766-1.249,9.766-1.249L130.5,319.1Z" transform="translate(-100.653 -237.023)" fill="#263238" stroke="#263238" stroke-linecap="round" stroke-linejoin="round" stroke-width="1"/><path d="M171.19,286.07s33.882,47.257,31.959,52.578-4.833,6.756-10.141,6.244S172.2,316.43,172.2,316.43Z" transform="translate(-83.099 -237.339)" fill="#263238" stroke="#263238" stroke-linecap="round" stroke-linejoin="round" stroke-width="1"/><path d="M180.557,286.146s-21.168-2.036-32.97-2.036-25.777,4.034-25.777,4.034l7.044,75.27h50.479l4.146-76.856Z" transform="translate(-95.388 -237.827)" fill="#263238" stroke="#263238" stroke-linecap="round" stroke-linejoin="round" stroke-width="1"/><path d="M128.263,347.61l-3.747,15.3a11.3,11.3,0,0,0,.937,7.943l7.169,13.85h43.773l6.869-12.876a13.138,13.138,0,0,0,.649-11.015l-5.17-13.138Z" transform="translate(-94.798 -222.024)" fill="#263238" stroke="#263238" stroke-linecap="round" stroke-linejoin="round" stroke-width="1"/><rect width="9.154" height="34.931" transform="translate(56.208 152.974)" fill="#263238" stroke="#263238" stroke-linecap="round" stroke-linejoin="round" stroke-width="1"/><rect width="13.813" height="44.185" transform="translate(53.885 182.423)" fill="#263238" stroke="#263238" stroke-linecap="round" stroke-linejoin="round" stroke-width="1"/><path d="M166.1,427.963l-6.407-1.711v-.312l-.575.15-.587-.15v.312l-6.394,1.711-43.6,8.143v3.2H209.7v-3.2Z" transform="translate(-98.691 -202.529)" fill="#263238" stroke="#263238" stroke-linecap="round" stroke-linejoin="round" stroke-width="1"/><circle cx="3.047" cy="3.047" r="3.047" transform="translate(10.586 235.762)" fill="#263238" stroke="#263238" stroke-linecap="round" stroke-linejoin="round" stroke-width="1"/><path d="M152.695,438.877a3.047,3.047,0,1,1-3.047-3.047A3.047,3.047,0,0,1,152.695,438.877Z" transform="translate(-89.219 -200.068)" fill="#263238" stroke="#263238" stroke-linecap="round" stroke-linejoin="round" stroke-width="1"/><path d="M190.41,438.877a3.06,3.06,0,1,1-3.06-3.047A3.06,3.06,0,0,1,190.41,438.877Z" transform="translate(-79.839 -200.068)" fill="#263238" stroke="#263238" stroke-linecap="round" stroke-linejoin="round" stroke-width="1"/><path d="M114,342.72h9.054v39.252h-.325a8.742,8.742,0,0,1-8.742-8.742V342.72Z" transform="translate(-97.334 -223.24)" fill="#2cc3ff" stroke="#263238" stroke-linecap="round" stroke-linejoin="round" stroke-width="1"/><rect width="14.237" height="7.331" transform="translate(11.448 111.287)" fill="#2cc3ff" stroke="#263238" stroke-linecap="round" stroke-linejoin="round" stroke-width="1"/><path d="M177.7,381.972h0a9.042,9.042,0,0,0,9.117-9.054v-30.2H177.7Z" transform="translate(-81.479 -223.24)" fill="#2cc3ff" stroke="#263238" stroke-linecap="round" stroke-linejoin="round" stroke-width="1"/><rect width="14.237" height="7.331" transform="translate(110.458 118.63) rotate(180)" fill="#2cc3ff" stroke="#263238" stroke-linecap="round" stroke-linejoin="round" stroke-width="1"/><path d="M185.351,399.45H129.239a11.877,11.877,0,0,1-11.889-11.877l6.657-83.9a9.9,9.9,0,0,1,9.9-9.9h46.758a9.9,9.9,0,0,1,9.929,9.9l6.657,83.9a11.877,11.877,0,0,1-11.9,11.877Z" transform="translate(-96.498 -235.423)" fill="#2cc3ff" stroke="#263238" stroke-linecap="round" stroke-linejoin="round" stroke-width="1"/><path d="M185.351,402.977H129.239A11.877,11.877,0,0,1,117.35,391.1l6.657-83.9a9.9,9.9,0,0,1,9.9-9.891h46.758a9.9,9.9,0,0,1,9.9,9.891l6.656,83.9a11.877,11.877,0,0,1-11.877,11.877Z" transform="translate(-96.498 -234.542)" fill="#2cc3ff" stroke="#263238" stroke-linecap="round" stroke-linejoin="round" stroke-width="1"/></g></g></g></svg>